#!OML:ASF H:\Terrain\Patient Classification 1\Terrain2\Thursday\justin.ASF
:FULLY-SPECIFIED
:DEGREES
3166
root 23.2814 24.2839 21.2217 1613.16 -81.3966 -529.163
lowerback 9.50625 0.388499 -1.8952
upperback 1.91192 0.338711 2.2883
thorax -3.36823 0.1614 3.4076
lowerneck -16.1219 -0.199027 -8.10553
upperneck 32.9234 0.269915 2.83786
head 13.8726 -0.86685 2.51053
rclavicle -2.28602e-015 9.14409e-015
rhumerus -30.2604 -1.9009 -83.4576
rradius 36.9187
rwrist -13.0254
rhand -20.233 11.4947
rfingers 7.12502
rthumb 6.11489 -18.397
lclavicle -2.28602e-015 9.14409e-015
lhumerus -33.7888 0.234475 82.2278
lradius 43.4685
lwrist 8.88663
lhand -16.9744 21.4682
lfingers 7.12502
lthumb 9.26007 51.2448
rfemur -22.7271 -4.26262 23.826
rtibia 43.3623
rfoot -23.109 1.3119
rtoes -1.67534
lfemur -15.4296 4.39585 -19.5359
ltibia 27.0223
lfoot -10.7348 -4.91276
ltoes 20.0112
3167
root 23.2342 24.2671 21.2088 1612.79 -81.5666 -528.83
lowerback 9.31298 0.282311 -1.84193
upperback 1.89324 0.20444 2.20016
thorax -3.27001 0.093999 3.30073
lowerneck -16.0514 -0.19881 -7.93063
upperneck 33.1134 0.171579 2.87516
head 13.946 -0.895442 2.48118
rclavicle 1.14301e-014 7.95139e-015
rhumerus -30.2862 -2.56035 -83.5355
rradius 36.7026
rwrist -12.7116
rhand -19.9259 11.8034
rfingers 7.12502
rthumb 6.41131 -18.0795
lclavicle 1.14301e-014 7.95139e-015
lhumerus -33.647 0.364335 81.9032
lradius 43.3712
lwrist 8.8412
lhand -17.1623 21.0634
lfingers 7.12502
lthumb 9.07871 50.848
rfemur -22.4787 -3.46116 23.8063
rtibia 42.2322
rfoot -23.1627 1.83847
rtoes 0.26266
lfemur -15.2814 4.76745 -19.5067
ltibia 27.0629
lfoot -10.9272 -5.29269
ltoes 17.9459
3168
root 23.1899 24.2527 21.1953 1610.81 -81.8111 -526.931
lowerback 9.29033 0.259767 -1.50019
upperback 1.82256 0.209019 2.1545
thorax -3.32988 0.0954403 3.05901
lowerneck -15.8441 -0.327063 -7.75984
upperneck 33.2389 -0.114452 2.87673
head 13.9748 -1.00754 2.40571
rclavicle -4.07509e-015 1.39149e-015
rhumerus -30.4429 -3.62614 -83.4571
rradius 36.3253
rwrist -12.1039
rhand -20.191 12.2046
rfingers 7.12502
rthumb 6.15543 -17.686
lclavicle -4.07509e-015 1.39149e-015
lhumerus -33.5097 0.156905 81.7568
lradius 43.2264
lwrist 8.68856
lhand -16.8082 20.2287
lfingers 7.12502
lthumb 9.42045 49.9982
rfemur -22.2312 -2.94273 24.0695
rtibia 41.2042
rfoot -23.1744 1.65344
rtoes -1.76472
lfemur -15.1096 5.33581 -19.2887
ltibia 27.0865
lfoot -11.1905 -5.80315
ltoes 17.0729
3169
root 23.1464 24.2372 21.1777 1611.31 -82.004 -527.569
lowerback 9.26337 0.310959 -1.6777
upperback 1.82935 0.259928 2.12524
thorax -3.31174 0.122497 3.12274
lowerneck -15.8915 -0.534281 -7.82575
upperneck 33.4442 -0.406362 2.85814
head 14.0993 -1.15441 2.3654
rclavicle -1.21756e-014 1.41137e-014
rhumerus -30.3423 -4.23638 -83.2673
rradius 35.8339
rwrist -11.969
rhand -20.9506 12.3811
rfingers 7.12502
rthumb 5.42206 -17.5295
lclavicle -1.21756e-014 1.41137e-014
lhumerus -33.2636 0.0171068 81.7983
lradius 43.0989
lwrist 8.66254
lhand -16.7503 20.1824
lfingers 7.12502
lthumb 9.47628 49.9493
rfemur -21.9761 -2.32919 23.928
rtibia 40.3216
rfoot -23.0021 0.754088
rtoes -3.08318
lfemur -14.8439 5.6245 -19.406
ltibia 27.1035
lfoot -11.4827 -6.10854
ltoes 17.1809
3170
root 23.099 24.2204 21.1658 1613.47 -82.18 -529.85
lowerback 9.06868 0.266876 -2.16541
upperback 1.8966 0.157944 2.17502
thorax -3.12824 0.0728728 3.46201
lowerneck -16.0063 -0.600217 -8.19492
upperneck 33.7017 -0.408691 2.89365
head 14.2449 -1.21134 2.44777
rclavicle 7.95139e-016 2.78299e-015
rhumerus -30.0728 -4.36966 -82.9537
rradius 35.3695
rwrist -12.0235
rhand -21.629 12.3015
rfingers 7.12502
rthumb 4.76702 -17.6249
lclavicle 7.95139e-016 2.78299e-015
lhumerus -32.9876 0.424138 81.9368
lradius 42.9118
lwrist 8.74722
lhand -17.1968 20.6424
lfingers 7.12502
lthumb 9.0454 50.4284
rfemur -21.723 -1.82515 23.5367
rtibia 39.5618
rfoot -22.7931 0.176285
rtoes -2.35875
lfemur -14.562 5.52606 -19.7407
ltibia 27.1367
lfoot -11.7132 -6.26844
ltoes 17.9483
